<mxfile host="app.diagrams.net" modified="2023-08-28T12:40:40.208Z" agent="Mozilla/5.0 (Windows NT 10.0; Win64; x64) AppleWebKit/537.36 (KHTML, like Gecko) Chrome/116.0.0.0 Safari/537.36 Edg/116.0.1938.62" etag="DD_03K-r5CHjxzn4fkTM" version="21.6.9" type="device">
  <diagram name="Page-1" id="hM6rTcYxYUGXKZ4xlw8A">
    <mxGraphModel dx="828" dy="473" grid="1" gridSize="10" guides="1" tooltips="1" connect="1" arrows="1" fold="1" page="1" pageScale="1" pageWidth="850" pageHeight="1100" math="0" shadow="0">
      <root>
        <mxCell id="0" />
        <mxCell id="1" parent="0" />
        <mxCell id="ELXsFI43KAcr_-74SI6s-1" value="" style="ellipse;html=1;shape=startState;labelBackgroundColor=none;fillColor=#000000;" vertex="1" parent="1">
          <mxGeometry x="310" width="30" height="30" as="geometry" />
        </mxCell>
        <mxCell id="ELXsFI43KAcr_-74SI6s-2" value="" style="edgeStyle=orthogonalEdgeStyle;html=1;verticalAlign=bottom;endArrow=open;endSize=8;rounded=0;labelBackgroundColor=none;fontColor=default;" edge="1" source="ELXsFI43KAcr_-74SI6s-3" parent="1">
          <mxGeometry relative="1" as="geometry">
            <mxPoint x="325" y="110" as="targetPoint" />
          </mxGeometry>
        </mxCell>
        <mxCell id="ELXsFI43KAcr_-74SI6s-7" value="" style="edgeStyle=orthogonalEdgeStyle;rounded=0;orthogonalLoop=1;jettySize=auto;html=1;labelBackgroundColor=none;fontColor=default;" edge="1" parent="1" source="ELXsFI43KAcr_-74SI6s-3" target="ELXsFI43KAcr_-74SI6s-6">
          <mxGeometry relative="1" as="geometry" />
        </mxCell>
        <mxCell id="ELXsFI43KAcr_-74SI6s-9" value="" style="edgeStyle=orthogonalEdgeStyle;rounded=0;orthogonalLoop=1;jettySize=auto;html=1;labelBackgroundColor=none;fontColor=default;" edge="1" parent="1" source="ELXsFI43KAcr_-74SI6s-6" target="ELXsFI43KAcr_-74SI6s-8">
          <mxGeometry relative="1" as="geometry" />
        </mxCell>
        <mxCell id="ELXsFI43KAcr_-74SI6s-12" value="" style="edgeStyle=orthogonalEdgeStyle;rounded=0;orthogonalLoop=1;jettySize=auto;html=1;labelBackgroundColor=none;fontColor=default;" edge="1" parent="1" source="ELXsFI43KAcr_-74SI6s-6" target="ELXsFI43KAcr_-74SI6s-11">
          <mxGeometry relative="1" as="geometry" />
        </mxCell>
        <mxCell id="ELXsFI43KAcr_-74SI6s-6" value="" style="rhombus;whiteSpace=wrap;html=1;labelBackgroundColor=none;" vertex="1" parent="1">
          <mxGeometry x="285" y="150" width="80" height="80" as="geometry" />
        </mxCell>
        <mxCell id="ELXsFI43KAcr_-74SI6s-17" value="" style="edgeStyle=orthogonalEdgeStyle;rounded=0;orthogonalLoop=1;jettySize=auto;html=1;labelBackgroundColor=none;fontColor=default;" edge="1" parent="1" source="ELXsFI43KAcr_-74SI6s-8" target="ELXsFI43KAcr_-74SI6s-16">
          <mxGeometry relative="1" as="geometry" />
        </mxCell>
        <mxCell id="ELXsFI43KAcr_-74SI6s-8" value="Admim pannel is displayed" style="whiteSpace=wrap;html=1;labelBackgroundColor=none;" vertex="1" parent="1">
          <mxGeometry x="40" y="240" width="220" height="60" as="geometry" />
        </mxCell>
        <mxCell id="ELXsFI43KAcr_-74SI6s-10" value="" style="edgeStyle=orthogonalEdgeStyle;html=1;verticalAlign=bottom;endArrow=open;endSize=8;rounded=0;labelBackgroundColor=none;fontColor=default;" edge="1" parent="1" source="ELXsFI43KAcr_-74SI6s-1" target="ELXsFI43KAcr_-74SI6s-3">
          <mxGeometry relative="1" as="geometry">
            <mxPoint x="325" y="110" as="targetPoint" />
            <mxPoint x="325" y="30" as="sourcePoint" />
          </mxGeometry>
        </mxCell>
        <mxCell id="ELXsFI43KAcr_-74SI6s-3" value="Enter Admin ID and Password" style="html=1;whiteSpace=wrap;labelBackgroundColor=none;" vertex="1" parent="1">
          <mxGeometry x="235" y="60" width="180" height="50" as="geometry" />
        </mxCell>
        <mxCell id="ELXsFI43KAcr_-74SI6s-25" value="" style="edgeStyle=orthogonalEdgeStyle;rounded=0;orthogonalLoop=1;jettySize=auto;html=1;labelBackgroundColor=none;fontColor=default;" edge="1" parent="1" source="ELXsFI43KAcr_-74SI6s-11" target="ELXsFI43KAcr_-74SI6s-24">
          <mxGeometry relative="1" as="geometry" />
        </mxCell>
        <mxCell id="ELXsFI43KAcr_-74SI6s-11" value="Error Message" style="whiteSpace=wrap;html=1;labelBackgroundColor=none;" vertex="1" parent="1">
          <mxGeometry x="370" y="240" width="250" height="60" as="geometry" />
        </mxCell>
        <mxCell id="ELXsFI43KAcr_-74SI6s-13" value="valid" style="text;html=1;align=center;verticalAlign=middle;resizable=0;points=[];autosize=1;strokeColor=none;fillColor=none;labelBackgroundColor=none;" vertex="1" parent="1">
          <mxGeometry x="185" y="158" width="50" height="30" as="geometry" />
        </mxCell>
        <mxCell id="ELXsFI43KAcr_-74SI6s-15" value="Invalid" style="text;html=1;align=center;verticalAlign=middle;resizable=0;points=[];autosize=1;strokeColor=none;fillColor=none;labelBackgroundColor=none;" vertex="1" parent="1">
          <mxGeometry x="380" y="158" width="60" height="30" as="geometry" />
        </mxCell>
        <mxCell id="ELXsFI43KAcr_-74SI6s-19" value="" style="edgeStyle=orthogonalEdgeStyle;rounded=0;orthogonalLoop=1;jettySize=auto;html=1;labelBackgroundColor=none;fontColor=default;" edge="1" parent="1" source="ELXsFI43KAcr_-74SI6s-16" target="ELXsFI43KAcr_-74SI6s-18">
          <mxGeometry relative="1" as="geometry" />
        </mxCell>
        <mxCell id="ELXsFI43KAcr_-74SI6s-16" value="Admin can add,delete and update the product" style="whiteSpace=wrap;html=1;labelBackgroundColor=none;" vertex="1" parent="1">
          <mxGeometry x="40" y="360" width="220" height="60" as="geometry" />
        </mxCell>
        <mxCell id="ELXsFI43KAcr_-74SI6s-23" value="" style="edgeStyle=orthogonalEdgeStyle;rounded=0;orthogonalLoop=1;jettySize=auto;html=1;labelBackgroundColor=none;fontColor=default;" edge="1" parent="1" source="ELXsFI43KAcr_-74SI6s-18" target="ELXsFI43KAcr_-74SI6s-20">
          <mxGeometry relative="1" as="geometry" />
        </mxCell>
        <mxCell id="ELXsFI43KAcr_-74SI6s-18" value="Updated product is displayed" style="whiteSpace=wrap;html=1;labelBackgroundColor=none;" vertex="1" parent="1">
          <mxGeometry x="30" y="470" width="240" height="40" as="geometry" />
        </mxCell>
        <mxCell id="ELXsFI43KAcr_-74SI6s-20" value="" style="ellipse;html=1;shape=endState;labelBackgroundColor=none;fillColor=#0F0F0F;" vertex="1" parent="1">
          <mxGeometry x="135" y="540" width="30" height="30" as="geometry" />
        </mxCell>
        <mxCell id="ELXsFI43KAcr_-74SI6s-24" value="" style="ellipse;html=1;shape=endState;labelBackgroundColor=none;fillColor=#000000;" vertex="1" parent="1">
          <mxGeometry x="480" y="530" width="30" height="30" as="geometry" />
        </mxCell>
      </root>
    </mxGraphModel>
  </diagram>
</mxfile>
